<?xml version="1.0" encoding="UTF-8"?> <!-- Generator: Adobe Illustrator 22.1.0, SVG Export Plug-In . SVG Version: 6.00 Build 0) --> <svg xmlns="http://www.w3.org/2000/svg" xmlns:xlink="http://www.w3.org/1999/xlink" id="Слой_1" x="0px" y="0px" viewBox="0 0 68 73" style="enable-background:new 0 0 68 73;" xml:space="preserve"> <style type="text/css"> .st0{fill:#205AFF;} .st1{enable-background:new ;} .st2{fill:#FFFFFF;} </style> <title>Logo</title> <desc>Created with Sketch.</desc> <polygon id="Path" class="st0" points="34.1,7 41.1,0 65,23.9 40.9,48 17,24.1 24.1,16.9 41.1,33.9 51,23.9 "></polygon> <polygon id="Path_1_" class="st0" points="30.8,41 23.7,48 0,24.3 24.3,0 48,23.7 40.8,30.9 24.1,14.2 14.2,24.1 "></polygon> <g class="st1"> <path class="st2" d="M5.3,65.7H2.4v-9.3h2.8V65.7z"></path> <path class="st2" d="M11.6,65.7H8.8v-6.9H6.3v-2.5h7.8v2.5h-2.5V65.7z"></path> <path class="st2" d="M23.3,65.9c-1.5,0-2.7-0.5-3.7-1.4c-1-0.9-1.5-2.1-1.5-3.5c0-1.4,0.5-2.6,1.5-3.5c1-0.9,2.2-1.3,3.7-1.3 c1.1,0,2,0.3,2.7,0.8s1.2,1.2,1.5,1.9l-2.4,1.1c-0.1-0.4-0.3-0.7-0.7-1c-0.3-0.3-0.7-0.4-1.1-0.4c-0.7,0-1.2,0.2-1.6,0.7 S21,60.4,21,61c0,0.7,0.2,1.2,0.6,1.7s1,0.7,1.6,0.7c0.4,0,0.8-0.1,1.1-0.4c0.3-0.3,0.6-0.6,0.7-1l2.4,1.1c-0.1,0.3-0.3,0.7-0.6,1 c-0.2,0.3-0.5,0.6-0.8,0.9s-0.7,0.5-1.2,0.7C24.4,65.8,23.9,65.9,23.3,65.9z"></path> <path class="st2" d="M35.5,65.7H33v-4.6h-2.1v4.6h-2.5v-6.8h7.1V65.7z"></path> <path class="st2" d="M40.2,65.9c-1.1,0-2-0.3-2.7-1c-0.7-0.6-1.1-1.5-1.1-2.6c0-1,0.3-1.8,1-2.5c0.7-0.7,1.6-1,2.6-1 c1,0,1.9,0.3,2.5,1c0.7,0.7,1,1.6,1,2.8v0.5H39c0.1,0.2,0.2,0.4,0.5,0.6s0.6,0.3,1,0.3c0.2,0,0.5,0,0.8-0.1 c0.3-0.1,0.6-0.2,0.7-0.3l1,1.6c-0.3,0.3-0.7,0.5-1.3,0.6S40.7,65.9,40.2,65.9z M41.2,61.5c-0.1-0.5-0.5-0.8-1.1-0.8 c-0.6,0-1,0.3-1.1,0.8H41.2z"></path> <path class="st2" d="M51.7,65.7h-3.1l-1.2-2.2L47,64.2v1.5h-2.5v-6.8H47v2.4l1.6-2.4h3L49.3,62L51.7,65.7z"></path> <path class="st2" d="M56.1,65.7h-2.5v-4.6h-1.8v-2.2h6.1v2.2h-1.8V65.7z"></path> <path class="st2" d="M63.2,65.9c-0.8,0-1.4-0.3-1.9-0.9v3.3h-2.5v-9.3h2.5v0.7c0.5-0.6,1.1-0.9,1.9-0.9c0.9,0,1.6,0.3,2.1,0.9 c0.6,0.6,0.8,1.5,0.8,2.6c0,1.1-0.3,2-0.8,2.6C64.8,65.6,64.1,65.9,63.2,65.9z M62.4,63.6c0.4,0,0.7-0.1,0.9-0.4 c0.2-0.2,0.4-0.6,0.4-1c0-0.4-0.1-0.7-0.4-1C63,61.1,62.7,61,62.4,61c-0.2,0-0.4,0-0.6,0.1c-0.2,0.1-0.4,0.2-0.5,0.3v1.7 c0.1,0.1,0.3,0.2,0.5,0.3C62,63.6,62.2,63.6,62.4,63.6z"></path> </g> </svg> 